# xmcd
#
# Track frame offsets:
#	150
#	17447
#	35556
#	59341
#	76115
#	93088
#	109319
#	126529
#	145227
#	163810
#	181943
#	203892
#	220242
#	237331
#	259716
#	281814
#	306581
#	327826
#
# Disc length: 4596 seconds
#
# Revision: 0
# Processed by: cddbd v1.5.2PL0 Copyright (c) Steve Scherf et al.
# Submitted via: EZCDAudioConverter 2.2.2.1
#
DISCID=0911f212
DTITLE=Emmanuel - Grandes Exitos
DYEAR=2002
DGENRE=Hispano
TTITLE0=Tengo mucho que aprender
TTITLE1=Quiero dormir cansado
TTITLE2=Todo se derrumbo
TTITLE3=Insoportablemente bella
TTITLE4=Este terco corazon
TTITLE5=Ven con el alma desnuda
TTITLE6=Tu y yo
TTITLE7=Pobre diablo
TTITLE8=El dia que puedas
TTITLE9=Esta triste guitarra
TTITLE10=Toda la vida
TTITLE11=Con olor a hierba
TTITLE12=Detenedla ya
TTITLE13=Sentirme vivo
TTITLE14=No he podido verte
TTITLE15=La chica de humo
TTITLE16=Bella señora
TTITLE17=Magdalena
EXTD=
EXTT0=
EXTT1=
EXTT2=
EXTT3=
EXTT4=
EXTT5=
EXTT6=
EXTT7=
EXTT8=
EXTT9=
EXTT10=
EXTT11=
EXTT12=
EXTT13=
EXTT14=
EXTT15=
EXTT16=
EXTT17=
PLAYORDER=
